<?xml version="1.0" encoding="utf-8"?>
<svg viewBox="1.402 1.874 22.051 17.764" xmlns="http://www.w3.org/2000/svg">
  <path d="M 15.884 18.798 L 13.121 16.033 L 15.884 13.269 L 15.043 12.429 L 11.439 16.033 L 15.043 19.638 L 15.884 18.798 Z M 19.007 18.798 L 21.77 16.033 L 19.007 13.269 L 19.847 12.429 L 23.453 16.033 L 19.847 19.638 L 19.007 18.798 Z" style="fill: rgb(255, 255, 255);"/>
  <path d="M 10.406 1.874 L 2.302 1.874 C 1.803 1.874 1.402 2.275 1.402 2.774 L 1.402 8.176 C 1.402 8.67 1.803 9.076 2.302 9.076 L 4.553 9.076 L 4.553 9.975 L 8.155 9.975 L 8.155 9.076 L 10.406 9.076 C 10.899 9.076 11.3 8.67 11.3 8.176 L 11.305 2.774 C 11.305 2.275 10.899 1.874 10.406 1.874 Z M 10.406 8.176 L 2.302 8.176 L 2.302 2.774 L 10.406 2.774 L 10.406 8.176 Z M 8.155 5.476 L 5.004 7.276 L 5.004 3.675 Z" style="fill: rgb(255, 255, 255);"/>
  <line style="fill: rgb(255, 255, 255); stroke: rgb(255, 255, 255);" x1="3.1848379629629635" y1="18.779976851851853" x2="19.66539351851852" y2="3.0418981481481486"/>
</svg>